
#### ##       ##       ##     ##  ######  ####  #######  ##    ## 
 ##  ##       ##       ##     ## ##    ##  ##  ##     ## ###   ## 
 ##  ##       ##       ##     ## ##        ##  ##     ## ####  ## 
 ##  ##       ##       ##     ##  ######   ##  ##     ## ## ## ## 
 ##  ##       ##       ##     ##       ##  ##  ##     ## ##  #### 
 ##  ##       ##       ##     ## ##    ##  ##  ##     ## ##   ### 
#### ######## ########  #######   ######  ####  #######  ##    ## 


Movie Info

Plot: A Marine platoon faces off against an alien invasion in Los Angeles.
IMDB:  
http://www.imdb.com/title/tt1217613/
IMDB Rating: 6.7
Trailer:



General Info
Size: 1.29GB
Format: AVI
Runtime: 1:50:38



Sources
Video - Inoplanetnoe.vtorzhenie.Bitva.za.Los-Andzheles.2011.D.TS.ELEKTRI4KA
Audio - Battle.Los Angeles 2011 TS XViD - IMAGiNE
(THANKS)



Video Info
ID : 0
Format : MPEG-4 Visual
Format profile : Advanced Simple@L5
Format settings, BVOP : 2
Format settings, QPel : No
Format settings, GMC : No warppoints
Format settings, Matrix : Default (H.263)
Muxing mode : Packed bitstream
Codec ID : XVID
Codec ID/Hint : XviD
Duration : 1h 50mn
Bit rate : 1 533 Kbps
Width : 720 pixels
Height : 336 pixels
Display aspect ratio : 2.2:1
Frame rate : 25.000 fps
Color space : YUV
Chroma subsampling : 4:2:0
Bit depth : 8 bits
Scan type : Progressive
Compression mode : Lossy
Bits/(Pixel*Frame) : 0.253
Stream size : 1.18 GiB (92%)
Writing library : XviD 58


Audio Info
ID : 1
Format : MPEG Audio
Format version : Version 1
Format profile : Layer 3
Codec ID : 55
Codec ID/Hint : MP3
Duration : 1h 50mn
Bit rate mode : Constant
Bit rate : 128 Kbps
Channel(s) : 2 channels
Sampling rate : 44.1 KHz
Compression mode : Lossy
Stream size : 101 MiB (8%)
Alignment : Split accross interleaves
Interleave, duration : 40 ms (1.00 video frame)
Interleave, preload duration : 500 ms




Encoders Notes
Well i think there where 3 different videos in the source.
1 Main video
1 for the ending
1 to fill in the missing bits.
I split the source into 2 pieces,
The main video & 15 minutes of the end.
With the 1st part i, lowered the brightness
increased the contrast, saturation & gamma.
De-noised it, Sharpened it & changed the colors with a RGB EQ.
With the second part i,
de-noised it, lowered the brightness & contrast,
Changed the colors with a rgb eq.
After encoding, i stuck the two parts back together & muxed them to the line audio.
Its not great but its ok considering the film only hit the cinemas on 11th.
Its a bit blurry & over cropped.
It is watchable but download the sample first,
Just to check that your happy with the quality.
Enjoy...


I am looking for;
Cammers, Cams, Screeners (any type), Cam audio, Line audio,
Un-released R6's R5's R4's R2's R1's,
A 25GB+ FTP server, A Windows Server
& a syncer.
If you can provide any of these please
contact me at illusion@hushmail.me

Greetz & Respect:
ChattChitto RG, Hunter, iNK, DiNGiE, Recalled2Life, Chaos,
SERENiTY, IFLIX, Demedic, ELEKTRI4KA, MotleyCrue, Feel-Free,
KRG, every uploader & encoder out there.




================================== 
http://thepiratebay.org/user/hiest
==================================




Screenz:
 
http://leetleech.org/images/46616767526887953598.jpg
 
http://leetleech.org/images/44555343620147195030.jpg
 
http://leetleech.org/images/40044434601054058575.jpg
 
http://leetleech.org/images/23869672410369162007.jpg
 
http://leetleech.org/images/11329734571818125358.jpg
 
http://leetleech.org/images/79621950614595285339.jpg



#### ##       ##       ##     ##  ######  ####  #######  ##    ## 
 ##  ##       ##       ##     ## ##    ##  ##  ##     ## ###   ## 
 ##  ##       ##       ##     ## ##        ##  ##     ## ####  ## 
 ##  ##       ##       ##     ##  ######   ##  ##     ## ## ## ## 
 ##  ##       ##       ##     ##       ##  ##  ##     ## ##  #### 
 ##  ##       ##       ##     ## ##    ##  ##  ##     ## ##   ### 
#### ######## ########  #######   ######  ####  #######  ##    ## 
